<svg width="121" height="50" viewBox="0 0 121 50" fill="none" xmlns="http://www.w3.org/2000/svg">
<path d="M13.4904 2.44605V22.2384H9.04688V0.353516H11.3554C12.5193 0.353516 13.4904 1.3193 13.4904 2.44605Z" fill="#004989"/>
<path d="M21.1133 11.2984C21.1133 4.60604 25.2224 0 31.9744 0C38.7586 0 42.8741 4.66795 42.8741 11.2984C42.8741 18.0218 38.8936 22.5597 31.9744 22.5597C25.0616 22.5597 21.1133 17.9908 21.1133 11.2984ZM25.7625 11.2984C25.7625 15.5763 27.7367 18.7956 31.9808 18.7956C36.225 18.7956 38.2313 15.7064 38.2313 11.2984C38.2313 6.98335 36.225 3.89409 31.9808 3.89409C27.7367 3.89409 25.7625 7.05145 25.7625 11.2984Z" fill="#004989"/>
<path d="M44.2617 13.453C44.3968 7.94927 47.4384 5.21289 53.3545 5.21289H53.9911V9.65178H52.4863C50.0106 9.65178 48.7759 10.9085 48.7759 13.3849V22.2379H44.2617V13.453V13.453Z" fill="#004989"/>
<path d="M59.8469 9.65789H55.4034C55.9372 6.50671 58.2457 4.95898 62.3227 4.95898C67.2035 4.95898 69.6792 6.50671 69.7757 9.65789V15.4464C69.7757 20.1453 66.8369 22.2378 62.0526 22.5598C57.8085 22.8817 54.8633 20.9811 54.8633 17.217C54.9662 13.131 58.04 12.0352 62.5156 11.6204C64.419 11.3975 65.39 10.8465 65.39 9.91172C65.2872 8.94593 64.3547 8.46304 62.5156 8.46304C60.953 8.46304 60.0849 8.85307 59.8469 9.65789ZM65.4672 15.2545V13.6758C64.4319 14.0968 63.2294 14.4497 61.924 14.7035C60.1556 15.0254 59.2489 15.8302 59.2489 17.087C59.3518 18.4366 60.0849 19.0805 61.4867 19.0805C63.9625 19.0867 65.4672 17.6689 65.4672 15.2545Z" fill="#004989"/>
<path d="M83.7133 22.2382C82.2407 22.1391 81.5076 21.4643 81.5076 20.1147V11.3607C81.4047 9.59012 80.4016 8.72339 78.4338 8.72339C76.4597 8.72339 75.4565 9.59012 75.4244 11.3607V22.2382H70.9102V12.2274C70.9102 7.36758 73.4502 4.95312 78.4981 4.95312C83.5461 4.95312 86.0218 7.36758 85.9832 12.2274V22.2382H83.7133Z" fill="#004989"/>
<path d="M87.1797 13.7437C87.1797 8.07898 89.9191 5.24973 95.4043 5.15067C100.922 5.11972 103.693 7.62704 103.693 12.7469V22.8195C103.693 27.0975 100.883 29.2581 95.2371 29.351C91.2245 29.351 88.6844 27.5494 87.6491 23.9463H92.562C92.8643 25.1721 93.8996 25.7478 95.7387 25.7478C98.0794 25.7478 99.2819 24.4292 99.2819 21.7919C99.2819 21.7919 99.2819 21.8228 99.2819 20.0522C98.1437 21.7238 96.4396 22.5595 94.234 22.5595C89.5204 22.5595 87.1797 19.6003 87.1797 13.7437ZM99.2755 13.8737C99.3076 10.4315 98.073 8.72283 95.5329 8.72283C92.9929 8.72283 91.7582 10.4253 91.7582 13.8737C91.8611 17.1549 93.0636 18.7954 95.4686 18.7954C97.8736 18.7954 99.1469 17.1549 99.2755 13.8737Z" fill="#004989"/>
<path d="M112.873 22.622C107.523 22.461 104.848 19.4708 104.848 13.6761C104.848 7.88143 107.555 4.98408 112.937 4.95312C118.551 4.95312 121.194 8.26526 120.86 14.9267H109.426C109.593 17.5331 110.764 18.8517 112.937 18.8517C113.973 18.8517 114.944 18.4307 115.812 17.6259C116.21 17.2049 116.712 17.013 117.316 17.013H120.59C119.625 20.6285 117.22 22.622 112.873 22.622ZM109.497 11.8746H116.146C115.876 9.62107 114.776 8.46337 112.873 8.46337C110.97 8.46337 109.831 9.62107 109.497 11.8746Z" fill="#004989"/>
<path d="M48.6154 34.161C49.7536 32.3904 51.4255 31.5237 53.6312 31.5237C58.3447 31.6846 60.6854 34.6439 60.6854 40.4386C60.6854 46.1033 57.946 48.9697 52.4608 49.0625C46.9434 49.0935 44.1719 46.549 44.1719 41.4353V26.9238H46.4097C47.8823 26.9238 48.6154 27.6667 48.6154 29.0783V34.161V34.161ZM48.6154 40.2467C48.5832 43.6888 49.7857 45.4285 52.3258 45.4285C54.8658 45.4285 56.1391 43.6888 56.1391 40.2467C56.0362 36.9655 54.8015 35.3558 52.3965 35.3558C49.9915 35.3558 48.7504 36.9593 48.6154 40.2467Z" fill="#004989"/>
<path d="M67.7012 29.0102V48.8025H63.2578V26.9238H65.5663C66.7302 26.9238 67.7012 27.8834 67.7012 29.0102Z" fill="#004989"/>
<path d="M77.6815 49.1923C72.3313 49.0313 69.6562 46.0411 69.6562 40.2464C69.6562 34.4517 72.3635 31.5544 77.7458 31.5234C83.3596 31.5234 86.0026 34.8356 85.6682 41.497H74.2348C74.402 44.1034 75.5723 45.422 77.7458 45.422C78.7811 45.422 79.7521 45.0011 80.6202 44.1962C81.0189 43.7753 81.5205 43.5833 82.125 43.5833H85.3981C84.4335 47.1926 82.0285 49.1923 77.6815 49.1923ZM74.3055 38.4387H80.9546C80.6845 36.1852 79.5849 35.0275 77.6815 35.0275C75.7781 35.0275 74.6399 36.1914 74.3055 38.4387Z" fill="#004989"/>
<path d="M102.697 42.0109C102.697 44.9392 101.925 46.8708 100.356 47.8056C98.7869 48.6723 97.0442 49.1243 95.1408 49.1243C93.3016 49.1243 91.6619 48.6414 90.125 47.6756C88.5881 46.7408 87.8164 44.8773 87.8164 42.0109V31.7773H92.2599V42.8777C92.2599 44.7783 93.263 45.7069 95.2694 45.7069C97.2757 45.7069 98.2788 44.7721 98.2788 42.8777V33.9008C98.2467 32.4831 98.9476 31.7773 100.42 31.7773H102.69V42.0109H102.697Z" fill="#004989"/>
<path d="M112.689 49.1923C107.339 49.0313 104.664 46.0411 104.664 40.2464C104.664 34.4517 107.371 31.5544 112.754 31.5234C118.368 31.5234 121.011 34.8356 120.676 41.497H109.249C109.416 44.1034 110.587 45.422 112.76 45.422C113.795 45.422 114.766 45.0011 115.635 44.1962C116.033 43.7753 116.535 43.5833 117.139 43.5833H120.412C119.441 47.1926 117.036 49.1923 112.689 49.1923ZM109.313 38.4387H115.963C115.692 36.1852 114.593 35.0275 112.689 35.0275C110.786 35.0275 109.648 36.1914 109.313 38.4387Z" fill="#004989"/>
<path d="M19.8558 0.382812H16.5955L15.5859 5.4284H20.0809L20.8654 1.62099C20.8654 1.62099 21.1355 0.463294 19.8558 0.382812Z" fill="#004989"/>
<path d="M9.77437 42.4808C10.1795 42.7037 10.5718 42.9637 10.9383 43.2423C10.4882 41.8803 9.47857 40.7598 8.15389 40.1283C6.03182 39.0387 3.83258 39.2616 0 40.4626C1.80697 41.3974 2.49504 43.8366 5.6074 44.9138C7.29863 45.4896 9.16991 45.2977 10.6875 44.3814C10.2245 43.7995 9.6329 43.3166 8.95127 42.9761C8.35966 42.6418 6.82277 41.936 4.26986 41.4346C4.28272 41.4222 7.80021 41.3665 9.77437 42.4808Z" fill="#004989"/>
<path d="M12.8978 26.3295L15.0971 27.4067C15.2128 27.4562 15.38 27.4191 15.4701 27.3138L17.1999 25.277C17.2642 25.2089 17.1741 25.178 16.9555 25.2151C16.4732 25.2956 15.8945 25.4008 15.0199 25.6175C14.1454 25.8342 13.6116 25.989 13.1358 26.1499C13.1165 26.1561 13.0007 26.1933 12.9171 26.249C12.8721 26.2861 12.8593 26.3171 12.8978 26.3295Z" fill="#004989"/>
<path d="M8.93651 28.2362L14.6532 27.6295C14.9104 27.5986 15.0262 27.5367 14.9104 27.4809L12.4926 26.478C12.4154 26.4409 12.2418 26.4656 12.036 26.5399C11.573 26.7133 11.0329 26.9299 10.3126 27.2828C9.56027 27.6481 9.14871 27.8895 8.84005 28.1062C8.83362 28.1124 8.73716 28.1681 8.75645 28.2115C8.76288 28.2424 8.82719 28.2486 8.93651 28.2362Z" fill="#004989"/>
<path d="M14.5845 27.828C14.8417 27.7289 14.8353 27.6794 14.5781 27.7103L8.67487 28.4347C8.45624 28.4594 8.22474 28.5399 8.10899 28.639C7.81962 28.8742 7.52381 29.159 7.29232 29.5552C7.04796 29.9824 7.00937 30.2301 7.12512 30.422C7.13798 30.4282 7.13155 30.4839 7.29875 30.4839C7.3952 30.4839 7.53668 30.4529 7.68458 30.391L14.5845 27.828Z" fill="#004989"/>
<path d="M14.6676 27.8766L7.79334 30.5572C7.48468 30.6748 7.30462 30.811 7.40108 30.8915C7.58114 31.0834 7.89623 31.2816 8.66789 31.4611C9.491 31.6468 10.1405 31.6963 10.8671 31.653C10.8993 31.6468 11.0536 31.6592 11.3044 31.5663C11.4523 31.5106 11.5873 31.4363 11.6645 31.3435L14.9441 27.8951C15.0534 27.7837 14.9248 27.7775 14.6676 27.8766Z" fill="#004989"/>
<path d="M19.2096 29.6045L15.557 27.7782C15.4348 27.7224 15.2612 27.7658 15.1648 27.8772L12.3032 31.2946C12.1488 31.4741 12.2389 31.5856 12.5861 31.5422C13.3642 31.468 14.3288 31.3256 15.8335 30.9541C17.3318 30.5827 18.2257 30.2979 18.9781 29.9759C19.0038 29.9636 19.1967 29.8955 19.2803 29.7778C19.3317 29.7159 19.3124 29.6478 19.2096 29.6045Z" fill="#004989"/>
<path d="M23.5431 26.8064C23.4659 26.7816 23.3373 26.7754 23.1766 26.794L16.013 27.5493C15.7493 27.5803 15.6336 27.6484 15.7557 27.7041L19.807 29.3509C20.0127 29.4375 20.3343 29.419 20.6172 29.2766C21.2538 28.9732 21.9226 28.6018 22.63 28.0384C23.2923 27.506 23.5495 27.1964 23.6267 26.924C23.6203 26.9178 23.6717 26.8497 23.5431 26.8064Z" fill="#004989"/>
<path d="M23.3551 25.6177C23.0207 25.3577 22.7185 25.2339 22.3391 25.1596C22.3198 25.1596 22.2555 25.1348 22.069 25.1534C21.9597 25.1658 21.8439 25.1905 21.7346 25.2339L16.0436 27.3512C15.7928 27.444 15.8057 27.4998 16.0693 27.4688L23.2265 26.5835C23.5416 26.5464 23.7731 26.4597 23.7667 26.3606C23.7795 26.1377 23.7152 25.8963 23.3551 25.6177Z" fill="#004989"/>
<path d="M15.9596 27.3075L21.4448 25.1716C21.6506 25.0911 21.6956 25.023 21.522 25.0044C21.1619 24.9549 20.6989 24.9178 19.8886 24.9301C19.117 24.9425 18.6025 24.9859 18.0945 25.054C18.0752 25.0601 17.9595 25.0663 17.8116 25.1159C17.728 25.1468 17.6572 25.1778 17.6251 25.2149L15.6766 27.2889C15.5802 27.3941 15.7088 27.4003 15.9596 27.3075Z" fill="#004989"/>
<path d="M37.9973 32.248C35.2772 29.4744 31.5089 27.9824 28.0814 28.2177C28.0107 27.8215 27.9142 27.4376 27.7985 27.06C27.5863 26.3914 27.2776 25.797 26.9689 25.4689L26.9625 25.4751C26.7953 25.2646 26.5574 25.0727 26.2487 24.9056C24.2103 23.7912 19.3874 24.0079 14.9375 25.0975C10.494 26.1871 5.94761 28.2672 4.37856 30.2669C3.85769 30.9355 3.68407 31.5484 3.83197 32.0746C3.83197 32.0746 3.83197 32.0746 3.82554 32.0746C3.82554 32.0746 6.42989 42.9583 17.0338 42.1472C17.8119 42.0853 18.5321 41.9615 19.2009 41.7944C17.9727 37.7579 19.4388 32.8733 22.4997 30.6941C22.6541 30.626 22.3518 30.7622 22.4997 30.6941C19.098 34.1548 19.3488 40.3457 23.9209 45.0198C29.0396 50.245 36.4411 50.3812 39.92 45.9918C42.9423 42.1968 41.9134 36.2473 37.9973 32.248ZM15.9278 31.6041C8.75774 33.3623 4.69366 32.1242 6.21126 29.8211C7.29801 28.1682 11.1177 26.3666 14.9953 25.4194C18.8729 24.4722 22.9434 24.336 24.4353 25.3575C26.5124 26.7752 23.1042 29.8459 15.9278 31.6041ZM38.6017 44.6174C35.6501 48.1339 29.5926 47.9048 25.4385 43.6578C21.2779 39.4109 21.3937 33.5728 25.2134 30.9479C28.5959 28.6263 33.7596 29.6849 37.0841 33.0838C40.4151 36.4764 41.2061 41.5034 38.6017 44.6174Z" fill="#004989"/>
<path d="M24.7828 33.8448L31.2326 37.3303C31.4898 37.4665 31.5991 37.3675 31.4769 37.1136L28.4675 31.1456C28.3517 30.9104 28.1331 30.7742 27.9016 30.8485C27.3743 30.9846 26.7634 31.2075 25.9982 31.7523C25.2136 32.3157 24.8085 32.7552 24.5513 33.2505C24.5449 33.2753 24.4548 33.3743 24.5191 33.5601C24.5577 33.6715 24.6477 33.7767 24.7828 33.8448Z" fill="#004989"/>
<path d="M31.1945 37.8692C31.4389 37.8011 31.426 37.6402 31.1688 37.5102L24.5711 34.2785C24.2946 34.1361 24.0438 34.1733 23.9602 34.4147C23.748 34.941 23.568 35.6096 23.5744 36.6992C23.5808 37.8135 23.7094 38.5193 23.9859 39.1631C24.0052 39.1879 24.0374 39.3489 24.2303 39.4665C24.346 39.5346 24.4875 39.5594 24.6354 39.5222L31.1945 37.8692Z" fill="#004989"/>
<path d="M31.2925 38.0669L24.8685 40.0604C24.5791 40.1409 24.4633 40.3637 24.6112 40.6423C24.9328 41.2614 25.3829 41.9672 26.2832 42.8896C27.1834 43.8059 27.8265 44.2826 28.4824 44.6045C28.5081 44.6107 28.656 44.716 28.8554 44.6664C28.9775 44.6417 29.074 44.555 29.1254 44.4188L31.569 38.3579C31.6655 38.1288 31.5369 37.9988 31.2925 38.0669Z" fill="#004989"/>
<path d="M32.146 38.5067C32.0238 38.2529 31.8566 38.2282 31.773 38.4634L29.6767 44.6791C29.5802 44.9515 29.6767 45.2115 29.9725 45.3168C30.6091 45.5706 31.3808 45.7935 32.5383 45.8616C33.67 45.9235 34.3324 45.8368 34.8983 45.6263C34.9176 45.6139 35.0655 45.5892 35.1362 45.4158C35.1812 45.3106 35.1748 45.1806 35.1105 45.0444L32.146 38.5067Z" fill="#004989"/>
<path d="M38.583 41.4731L32.5704 38.229C32.3132 38.099 32.2103 38.1981 32.3325 38.4519L35.5671 44.8595C35.6957 45.1319 35.9272 45.2557 36.1458 45.1381C36.641 44.8905 37.1811 44.5376 37.8049 43.8132C38.4158 43.1075 38.6923 42.5998 38.8402 42.0612C38.8402 42.0365 38.8981 41.925 38.8273 41.7455C38.7887 41.6279 38.7051 41.535 38.583 41.4731Z" fill="#004989"/>
<path d="M39.1666 38.7236C39.0252 37.7578 38.8451 37.1573 38.575 36.6248C38.5622 36.6063 38.5171 36.4763 38.3628 36.371C38.2728 36.3091 38.1635 36.2905 38.0606 36.3153L32.6075 37.7021C32.3696 37.7702 32.3824 37.9311 32.6396 38.0549L38.7036 41.0266C38.9416 41.1504 39.1345 41.0947 39.1666 40.8532C39.2567 40.3394 39.3081 39.7079 39.1666 38.7236Z" fill="#004989"/>
<path d="M32.5146 37.4977L37.8326 35.8633C38.0384 35.8076 38.1027 35.6342 37.9612 35.4113C37.6718 34.9161 37.2731 34.3403 36.5336 33.585C35.7941 32.8297 35.2797 32.4211 34.7524 32.124C34.7331 32.1178 34.6109 32.0249 34.4566 32.0435C34.3601 32.0497 34.2894 32.1054 34.2508 32.2044L32.2445 37.2191C32.1545 37.4358 32.2766 37.5658 32.5146 37.4977Z" fill="#004989"/>
<path d="M31.6707 37.065C31.7929 37.3189 31.9536 37.3374 32.0372 37.1146L33.7927 31.9575C33.8635 31.7656 33.7734 31.5613 33.5355 31.4499C33.0082 31.196 32.3587 30.936 31.362 30.7503C30.346 30.5584 29.7287 30.5336 29.1821 30.6265C29.1628 30.6327 29.0213 30.6327 28.9377 30.7627C28.8927 30.837 28.8863 30.9422 28.9441 31.0598L31.6707 37.065Z" fill="#004989"/>
</svg>
