<svg width="244" height="244" viewBox="0 0 244 244" fill="none" xmlns="http://www.w3.org/2000/svg">
<path d="M116.285 78.6791C116.163 78.1545 115.448 78.3253 115.408 78.8011C115.286 80.2517 115.378 81.6755 115.127 83.1138C114.452 86.9849 112.267 92.0869 108.266 92.2053C101.414 92.4066 98.5288 82.8955 97.6773 76.0708C97.2942 73.011 97.4442 72.1094 97.177 71.1908C97.1624 71.1457 97.1339 71.1064 97.0955 71.0785C97.0571 71.0507 97.011 71.0356 96.9635 71.0356C96.9161 71.0356 96.8699 71.0507 96.8316 71.0785C96.7932 71.1064 96.7647 71.1457 96.75 71.1908C96.6029 71.9246 96.5663 72.6763 96.6415 73.4209C96.6699 75.8732 96.9561 78.3156 97.4955 80.708C98.8289 86.4847 101.958 93.0129 107.853 93.2106C112.517 93.3667 115.089 88.3757 116.027 83.8397C116.468 82.1557 116.556 80.3987 116.285 78.6791Z" fill="#191919"/>
<path d="M119.283 77.8005C119.877 77.5042 120.373 77.0435 120.713 76.4734C121.053 75.9032 121.222 75.2474 121.2 74.584C121.178 73.9205 120.966 73.2773 120.59 72.7307C120.213 72.1841 119.687 71.7571 119.075 71.5005C118.765 71.3502 118.428 71.2644 118.084 71.2484C117.74 71.2323 117.396 71.2864 117.074 71.4072C116.751 71.528 116.457 71.7131 116.208 71.9512C115.959 72.1893 115.761 72.4755 115.626 72.7924C115.594 72.8526 115.585 72.9222 115.6 72.9887C115.614 73.0552 115.652 73.1144 115.707 73.1555C115.761 73.1966 115.828 73.217 115.896 73.2131C115.964 73.2091 116.029 73.1811 116.078 73.134C116.552 72.707 117.004 72.1739 117.698 72.158C118.188 72.1652 118.665 72.3223 119.063 72.6082C120.743 73.7733 120.538 76.5696 117.771 77.1051C117.207 77.2972 116.589 77.2577 116.053 76.9953C115.823 76.8611 115.508 76.7428 115.298 76.9953C115.216 77.0792 115.163 77.1877 115.147 77.3044C115.132 77.421 115.155 77.5395 115.213 77.6419C116.077 78.89 118.159 78.3691 119.283 77.8005Z" fill="#191919"/>
<path d="M121.133 78.7888C121.284 79.192 121.503 79.5666 121.78 79.8965C122.574 81.2394 123 82.7686 123.012 84.3289C123.025 85.8892 122.624 87.425 121.852 88.7806C120.352 87.8509 117.478 86.6627 115.808 87.0726C115.527 87.1409 115.576 87.5008 115.808 87.596C117.374 88.2426 118.77 87.8583 121.755 89.8871C121.87 89.9524 122.006 89.9698 122.134 89.9355C122.261 89.9013 122.371 89.8181 122.437 89.7041C123.289 88.4008 123.82 86.9138 123.985 85.3655C124.15 83.8173 123.945 82.2519 123.388 80.7981C123.086 80.0161 122.587 78.6436 121.792 78.2874C121.715 78.2461 121.628 78.2279 121.541 78.2348C121.454 78.2417 121.371 78.2735 121.301 78.3264C121.232 78.3792 121.179 78.4509 121.149 78.5329C121.12 78.6148 121.114 78.7037 121.133 78.7888Z" fill="#191919"/>
<path d="M123.73 96.5559C121.264 94.1031 118.228 92.2988 114.895 91.3038C114.83 91.2876 114.762 91.295 114.702 91.3247C114.642 91.3544 114.594 91.4045 114.568 91.466C114.541 91.5275 114.538 91.5964 114.557 91.6603C114.577 91.7242 114.619 91.7791 114.675 91.815C116.616 93.1753 120.927 94.2342 123.877 98.4201C124.07 98.7717 124.374 99.05 124.742 99.2119C124.805 99.2272 124.871 99.2182 124.927 99.1865C124.984 99.1547 125.026 99.1028 125.045 99.0411C125.294 98.1675 124.267 97.1513 123.73 96.5559Z" fill="#191919"/>
<path d="M103.501 84.1251C103.5 84.6047 103.674 85.0682 103.989 85.4293C104.699 86.01 105.966 85.2378 106.523 84.7595C106.584 84.6967 106.624 84.6176 106.64 84.532C106.656 84.4465 106.646 84.3581 106.612 84.2779C106.579 84.1977 106.522 84.1291 106.45 84.0805C106.378 84.0319 106.293 84.0054 106.206 84.0044C105.801 84.0552 105.406 84.1701 105.037 84.3447C104.867 84.4179 104.769 84.5033 104.671 84.4057C104.574 84.3081 104.597 83.9678 104.574 83.8214C104.209 80.9158 104.095 77.9844 104.232 75.0593C104.23 74.9891 104.203 74.9219 104.156 74.8695C104.109 74.8171 104.045 74.7829 103.976 74.7727C103.906 74.7625 103.835 74.7771 103.775 74.8139C103.715 74.8506 103.67 74.9073 103.648 74.9739C102.986 77.9836 102.936 81.0958 103.501 84.1251Z" fill="#191919"/>
<path d="M105.926 76.2173C106.178 75.8542 106.477 75.5261 106.815 75.2413C107.196 74.99 107.695 75.0253 108.046 74.7777C108.102 74.7455 108.148 74.6993 108.18 74.6438C108.212 74.5882 108.229 74.5252 108.229 74.4611C108.229 74.397 108.212 74.334 108.18 74.2784C108.148 74.2229 108.102 74.1767 108.046 74.1445C107.255 73.7029 105.475 74.8509 105.484 76.0453C105.487 76.0953 105.504 76.1434 105.533 76.184C105.563 76.2246 105.603 76.2559 105.65 76.2741C105.696 76.2922 105.747 76.2965 105.796 76.2865C105.845 76.2764 105.89 76.2524 105.926 76.2173Z" fill="#191919"/>
<path d="M98.8097 74.7054C99.3244 74.5755 99.8684 74.6317 100.346 74.864C100.798 75.0812 100.975 75.5533 101.394 75.8022C101.982 76.1524 102.334 74.7555 100.675 74.0601C100.347 73.9076 99.9833 73.8463 99.623 73.8828C99.2628 73.9193 98.9191 74.0522 98.6279 74.2675C98.4193 74.42 98.5291 74.786 98.8097 74.7054Z" fill="#191919"/>
<path d="M107.376 78.6901C107.351 78.5465 107.292 78.4108 107.205 78.294C107.118 78.1771 107.004 78.0823 106.874 78.0171C106.744 77.9519 106.6 77.9181 106.454 77.9185C106.308 77.9188 106.164 77.9532 106.034 78.0191C105.856 78.1218 105.725 78.2898 105.668 78.4876C105.611 78.6853 105.633 78.8974 105.729 79.0792C105.753 79.2408 105.819 79.3931 105.922 79.5199C106.025 79.6466 106.16 79.7431 106.314 79.799C106.466 79.8437 106.627 79.8458 106.78 79.805C106.933 79.7641 107.072 79.682 107.182 79.5676C107.292 79.4532 107.368 79.3108 107.402 79.156C107.436 79.0013 107.427 78.8401 107.376 78.6901ZM106.67 78.7145C106.691 78.7529 106.708 78.7939 106.719 78.8365C106.708 78.7943 106.691 78.7537 106.67 78.7157V78.7145ZM106.731 78.9084L106.755 78.884L106.731 78.9084Z" fill="#191919"/>
<path d="M100.137 79.2147C100.014 79.4282 99.9817 79.6815 100.046 79.9191C100.11 80.1567 100.265 80.3593 100.478 80.4823C100.566 80.5341 100.668 80.5561 100.769 80.5451C100.87 80.5341 100.964 80.4906 101.038 80.4213C101.155 80.3948 101.264 80.3421 101.357 80.2671C101.45 80.1922 101.524 80.097 101.575 79.9889C101.625 79.8808 101.651 79.7625 101.649 79.6432C101.647 79.5238 101.617 79.4065 101.563 79.3001L101.575 79.3245C101.522 79.1826 101.429 79.0589 101.308 78.9679C101.187 78.8769 101.042 78.8224 100.891 78.8109C100.74 78.7994 100.589 78.8312 100.455 78.9028C100.321 78.9743 100.211 79.0826 100.137 79.2147Z" fill="#191919"/>
<path d="M108.472 88.1228C108.209 88.4071 107.681 88.1716 107.339 88.0496C107.071 87.952 106.973 88.3315 107.157 88.4754C107.532 88.7707 108.011 89.2245 108.533 89.1098C109.589 88.8768 110.457 85.4218 109.192 85.0765C109.13 85.0609 109.065 85.0654 109.006 85.0893C108.946 85.1132 108.896 85.1553 108.863 85.2095C108.677 85.4535 108.728 85.5999 108.789 85.8927C108.891 86.2665 108.915 86.657 108.86 87.0404C108.806 87.4238 108.674 87.7921 108.472 88.1228Z" fill="#191919"/>
<path d="M116.783 56.147C115.648 54.1864 113.724 51.2779 111.154 51.3829C111.071 51.3843 110.991 51.4044 110.917 51.4418C110.844 51.4792 110.78 51.5328 110.731 51.5986C110.681 51.6644 110.648 51.7406 110.632 51.8214C110.617 51.9022 110.62 51.9854 110.641 52.0648C110.954 52.8786 111.264 53.7094 111.567 54.5268C107.819 51.7853 103.155 50.6017 98.5536 51.2243C98.0168 51.2962 98.09 51.9917 98.4194 52.2357C99.1644 52.7848 99.8432 53.4186 100.442 54.1242C98.4911 53.7419 96.4737 53.8808 94.5935 54.5268C94.4797 54.5613 94.3801 54.6314 94.3092 54.7269C94.2384 54.8223 94.2002 54.938 94.2002 55.0569C94.2002 55.1758 94.2384 55.2915 94.3092 55.3869C94.3801 55.4824 94.4797 55.5525 94.5935 55.587C95.0289 55.739 95.4424 55.9478 95.8232 56.208C94.3158 56.1446 92.8141 56.4311 91.4358 57.0449C90.0575 57.6587 88.84 58.5832 87.8786 59.746C87.6114 60.0754 87.7322 60.7854 88.2812 60.722C90.754 60.4506 93.253 60.5369 95.7012 60.9782C96.2502 61.0172 96.2649 60.2535 95.8232 60.0754C93.8556 59.4982 91.7994 59.2836 89.7549 59.4422C90.7943 58.5471 92.03 57.9097 93.3618 57.5816C94.6936 57.2534 96.084 57.2439 97.4202 57.5536C97.5374 57.583 97.661 57.5734 97.7723 57.5263C97.8836 57.4792 97.9766 57.3972 98.0371 57.2926C98.0976 57.1879 98.1224 57.0665 98.1077 56.9465C98.0931 56.8265 98.0397 56.7146 97.9558 56.6276C97.4572 56.0873 96.8924 55.6122 96.2746 55.2137C98.0877 54.864 99.9615 55.0116 101.698 55.6407C101.804 55.6666 101.915 55.6612 102.019 55.6252C102.122 55.5891 102.212 55.5239 102.279 55.4374C102.346 55.3509 102.387 55.2469 102.396 55.1379C102.405 55.029 102.382 54.9197 102.331 54.8233C101.688 53.8515 100.922 52.967 100.052 52.1917C102.297 52.0653 104.545 52.3917 106.662 53.1517C108.779 53.9117 110.721 55.0896 112.374 56.6154C112.74 56.9558 113.479 56.6289 113.275 56.0909C112.83 54.9233 112.386 53.7387 111.947 52.5699C112.808 52.9187 113.561 53.4906 114.128 54.2267C116.425 56.9481 117.863 60.2901 118.259 63.8293C118.31 64.1697 118.825 64.0733 118.831 63.7561C118.854 61.0805 118.146 58.4495 116.783 56.147Z" fill="#191919"/>
<path d="M147.541 179.114C146.783 180.84 145.882 188.071 142.277 193.237C141.806 193.791 141.428 194.416 141.155 195.09C141.135 195.169 141.139 195.253 141.166 195.331C141.192 195.408 141.241 195.476 141.305 195.526C141.37 195.577 141.448 195.607 141.53 195.614C141.611 195.621 141.693 195.604 141.765 195.565C142.741 195.096 143.917 193.076 144.435 192.128C145.836 189.492 146.838 186.662 147.408 183.732C147.735 182.257 147.971 180.764 148.114 179.26C148.108 178.992 147.675 178.809 147.541 179.114Z" fill="#191919"/>
<path d="M151.39 182.684C150.658 184.84 151.277 186.243 147.759 193.762C147.487 194.174 147.319 194.646 147.271 195.138C147.273 195.187 147.287 195.235 147.313 195.277C147.338 195.319 147.374 195.354 147.417 195.379C147.46 195.403 147.508 195.416 147.557 195.417C147.607 195.417 147.655 195.405 147.698 195.382C148.13 195.076 148.472 194.659 148.685 194.175C150.96 190.403 152.188 184.581 151.988 182.782C151.927 182.429 151.502 182.356 151.39 182.684Z" fill="#191919"/>
<path d="M154.305 181.966C154.305 189.259 152.297 191.349 152.281 193.678C152.283 193.734 152.303 193.789 152.338 193.833C152.373 193.878 152.421 193.91 152.476 193.925C152.53 193.94 152.588 193.937 152.641 193.917C152.694 193.896 152.739 193.859 152.769 193.812C153.728 191.953 154.402 189.96 154.768 187.901C155.273 185.932 155.331 183.875 154.938 181.881C154.917 181.807 154.869 181.744 154.804 181.702C154.74 181.66 154.662 181.643 154.586 181.653C154.509 181.663 154.439 181.7 154.388 181.757C154.336 181.815 154.307 181.888 154.305 181.966Z" fill="#191919"/>
<path d="M139.596 136.951C138.099 129.28 139.371 121.123 138.341 113.079C136.87 101.353 131.654 90.3325 129.786 78.0934C129.737 77.8141 129.262 77.8738 129.286 78.1666C129.725 85.4866 132.041 92.4968 134.064 99.4922C136.667 108.448 137.571 113.207 137.602 121.719C137.632 131.633 137.365 135.197 140.477 144.629C145.628 160.308 148.185 172.09 139.892 186.523C139.814 186.665 139.794 186.832 139.838 186.988C139.881 187.144 139.984 187.277 140.124 187.358C140.264 187.439 140.431 187.462 140.588 187.422C140.745 187.382 140.88 187.283 140.964 187.144C152.998 166.164 141.901 148.868 139.596 136.951Z" fill="#191919"/>
<path d="M127.787 116.266C127.74 116.232 127.682 116.215 127.624 116.219C127.566 116.224 127.511 116.249 127.47 116.29C127.429 116.331 127.404 116.386 127.399 116.444C127.395 116.502 127.411 116.559 127.445 116.606C129.522 119.092 131.203 121.883 132.429 124.88C134.54 129.776 134.608 132.168 135.78 133.935C135.814 133.988 135.863 134.028 135.921 134.05C135.979 134.072 136.043 134.076 136.102 134.059C136.162 134.043 136.215 134.008 136.254 133.959C136.293 133.911 136.315 133.851 136.317 133.789C136.177 132.16 135.778 130.563 135.135 129.06C133.544 124.318 131.566 119.544 127.787 116.266Z" fill="#191919"/>
<path d="M143.799 167.77C143.785 167.722 143.761 167.679 143.728 167.642C143.695 167.605 143.654 167.577 143.609 167.558C143.563 167.539 143.514 167.531 143.465 167.534C143.415 167.537 143.367 167.551 143.324 167.575C142.798 167.877 142.836 168.626 141.558 169C140.548 169.16 139.514 169.069 138.548 168.732C138.484 168.718 138.416 168.726 138.357 168.757C138.299 168.787 138.252 168.836 138.226 168.897C138.2 168.957 138.196 169.025 138.215 169.089C138.233 169.152 138.274 169.207 138.328 169.244C141.154 171.054 144.219 169.092 143.799 167.77Z" fill="#191919"/>
<path d="M137.373 168.098C137.629 168.317 138.105 168.024 137.884 167.708C134.91 163.53 126.552 155.173 117.704 139.376C113.383 131.677 109.439 123.125 111.076 114.396C112.165 108.54 114.405 106.541 118.546 104.561C123.074 102.484 127.964 101.312 132.942 101.112C133.024 101.107 133.101 101.071 133.158 101.011C133.214 100.951 133.245 100.872 133.245 100.79C133.245 100.707 133.214 100.628 133.158 100.568C133.101 100.508 133.024 100.472 132.942 100.467C127.667 99.7825 120.356 101.937 115.833 104.647C113.392 105.981 111.563 108.208 110.728 110.861C107.579 119.484 110.665 128.737 114.908 136.817C122.111 150.687 132.892 164.295 137.373 168.098Z" fill="#191919"/>
<path d="M138.585 184.975C136.926 184.653 132.512 185.64 122.304 185.231C121.973 185.217 117.761 185.051 116.918 184.902C115.919 184.731 115.858 183.964 116.017 183.099C116.757 178.995 123.565 174.4 127.3 172.582C131.598 170.508 134.262 170.306 136.988 169.585C137.063 169.562 137.127 169.513 137.17 169.447C137.212 169.382 137.23 169.303 137.219 169.225C137.209 169.148 137.172 169.076 137.114 169.024C137.056 168.971 136.981 168.941 136.903 168.938C127.907 168.671 112.782 179.197 115.03 184.816C115.64 186.328 117.881 186.108 119.185 186.182C124.575 186.504 129.98 186.488 135.368 186.133C136.46 186.151 137.548 186.007 138.597 185.707C138.889 185.585 138.987 185.06 138.585 184.975Z" fill="#191919"/>
<path d="M126.637 163.102C128.519 163.676 130.122 166.696 130.975 168.427C131.109 168.708 131.608 168.512 131.486 168.207C130.737 166.255 129.075 163.246 127.148 162.407C126.429 162.102 125.101 161.883 125.137 163.028C125.182 163.689 125.356 164.335 125.65 164.929C121.953 162.695 120.468 165.482 122.64 167.416C123.66 168.366 124.81 169.166 126.056 169.792C126.11 169.823 126.173 169.833 126.234 169.821C126.295 169.81 126.349 169.776 126.388 169.727C126.426 169.678 126.446 169.617 126.443 169.555C126.44 169.493 126.415 169.435 126.372 169.389C124.894 167.675 122.804 166.949 122.558 165.77C122.314 164.528 124.009 165.1 124.581 165.356C125.336 165.74 126.047 166.206 126.701 166.746C127.079 167.025 127.505 166.49 127.311 166.136C126.809 165.338 126.416 164.476 126.142 163.574C126.142 163.562 125.995 163.013 125.995 163C126.046 162.931 126.557 163.077 126.637 163.102Z" fill="#191919"/>
<path d="M237.849 142.788C237.848 142.658 237.805 142.531 237.725 142.428C237.646 142.325 237.536 142.25 237.41 142.216C235.665 141.856 233.864 141.856 232.119 142.216C230.374 142.577 228.72 143.29 227.26 144.312C227.182 144.365 227.117 144.436 227.071 144.518C227.024 144.601 226.997 144.693 226.992 144.787C226.683 144.443 226.281 144.197 225.834 144.08C225.53 143.994 225.396 144.397 225.628 144.568C225.871 144.753 226.085 144.975 226.261 145.225C225.32 144.909 213.573 145.073 206.398 145.932C198.857 146.689 191.49 148.669 184.586 151.794C185.654 150.118 186.54 148.332 187.229 146.468C187.895 144.678 188.376 142.824 188.668 140.936C188.813 140.997 188.947 141.046 189.093 141.107C189.184 141.131 189.278 141.138 189.371 141.126C189.464 141.115 189.554 141.085 189.636 141.038C189.717 140.992 189.789 140.93 189.846 140.856C189.904 140.782 189.946 140.697 189.971 140.606C194.516 125.802 198.389 110.009 195.784 94.4477C195.464 91.3577 194.009 88.4963 191.702 86.4164C192.423 85.6942 191.525 84.9524 190.947 84.1984C186.799 78.7902 180 73.7345 173.959 70.5137C161.413 63.8232 134.034 59.2263 121.207 64.9822C120.902 65.1164 121.121 65.6398 121.438 65.53C128.907 63.0253 138.998 63.1022 146.724 64.0074C153.876 64.8358 164.209 67.1733 170.608 70.0757C178.017 73.4344 185.791 79.0208 190.715 85.8137C188.91 87.0166 186.747 87.6157 181.393 90.4192C171.403 95.6262 164.692 98.6201 155.059 100.887C155.03 100.893 155.002 100.901 154.974 100.911C154.886 100.873 154.792 100.855 154.696 100.856C154.601 100.858 154.507 100.879 154.421 100.92C154.335 100.96 154.258 101.018 154.196 101.09C154.133 101.162 154.087 101.247 154.06 101.338C152.928 108.844 157.432 114.16 157.253 127.452C157.156 132.514 156.615 132.933 156.935 134.106C156.965 134.207 157.016 134.3 157.086 134.378C157.157 134.457 157.244 134.518 157.341 134.558C157.438 134.598 157.543 134.615 157.648 134.608C157.753 134.602 157.855 134.571 157.947 134.52C158.386 134.253 158.812 133.984 159.227 133.704C160.753 125.872 163.863 114.332 167.354 107.272C167.513 106.956 168.024 107.176 167.928 107.516C166.21 113.128 162.475 122.327 160.043 135.698C160.135 135.811 160.258 135.896 160.397 135.942C160.892 136.06 161.4 136.115 161.909 136.106C160.72 139.426 159.795 142.835 159.141 146.3C157.966 152.61 157.538 159.217 161.115 164.555C164.607 169.792 171.098 171.2 177.407 171.342C186.397 171.564 197.537 167.249 205.711 163.397C210.787 161.001 220.039 155.976 224.198 152.259C224.587 151.918 224.088 151.296 223.649 151.552C219.931 153.71 209.12 162.235 190.709 168.003C183.902 170.141 178.061 170.992 171.052 169.49C168.166 169.016 165.489 167.687 163.366 165.676C156.391 158.437 159.95 145.677 162.663 136.101C171.295 136.112 179.854 137.676 187.932 140.719C187.495 142.521 186.95 144.295 186.3 146.032C185.564 147.847 184.705 149.61 183.728 151.308C183.7 151.383 183.688 151.462 183.692 151.541C183.695 151.62 183.715 151.698 183.749 151.77C183.783 151.841 183.831 151.905 183.89 151.958C183.949 152.011 184.019 152.051 184.094 152.077C182.487 152.866 180.933 153.757 179.44 154.745C179.381 154.779 179.339 154.834 179.322 154.899C179.304 154.964 179.314 155.034 179.347 155.092C179.381 155.15 179.437 155.193 179.502 155.21C179.567 155.227 179.636 155.218 179.695 155.184C184.992 152.369 190.615 150.216 196.438 148.774C209.796 145.527 223.567 146.37 226.123 146.166C226.219 146.166 226.312 146.133 226.387 146.074C226.462 146.014 226.515 145.931 226.538 145.838C227.033 147.112 227.095 148.513 226.714 149.826C226.333 151.139 225.53 152.289 224.429 153.1C224.398 153.051 224.354 153.012 224.301 152.987C224.248 152.963 224.189 152.954 224.132 152.961C224.074 152.969 224.019 152.993 223.975 153.031C223.93 153.068 223.898 153.118 223.881 153.174C222.147 157.356 222.035 163.347 222.857 167.881C219.319 168.832 215.155 170.66 214.424 174.644C214.397 174.757 214.405 174.875 214.449 174.982C214.493 175.09 214.57 175.18 214.668 175.241C216.102 175.815 217.658 176.012 219.19 175.814C221.054 175.68 232.35 174.742 236.127 174.425C236.259 174.422 236.384 174.369 236.477 174.276C236.571 174.183 236.624 174.057 236.627 173.926C237.63 163.578 238.038 153.182 237.849 142.788ZM190.897 85.6124L190.873 85.6368C190.886 85.6124 190.897 85.6124 190.897 85.6124ZM176.006 103.477C175.242 104.027 172.744 103.945 168.854 106.718C168.597 106.901 168.317 106.499 168.524 106.291C170.044 104.778 171.91 103.658 173.959 103.025C174.574 102.749 175.253 102.648 175.921 102.734C175.995 102.759 176.061 102.805 176.11 102.866C176.159 102.927 176.19 103 176.199 103.078C176.208 103.156 176.195 103.235 176.161 103.306C176.126 103.376 176.073 103.436 176.006 103.477ZM235.664 173.374C217.519 174.78 217.313 175.042 215.545 174.386C216.484 170.938 220.468 169.475 223.612 168.696C223.746 168.657 223.859 168.568 223.927 168.447C223.996 168.326 224.014 168.183 223.978 168.049C222.88 162.541 223.384 159.021 224.32 154.097C224.4 154.143 224.492 154.165 224.585 154.161C224.678 154.157 224.767 154.126 224.843 154.073C226.215 153.178 227.228 151.83 227.707 150.265C228.186 148.699 228.1 147.015 227.464 145.506C227.536 145.519 227.611 145.516 227.683 145.497C227.754 145.478 227.821 145.444 227.877 145.396C230.427 143.602 233.566 142.852 236.651 143.3C236.982 153.336 236.654 163.382 235.668 173.374H235.664Z" fill="#191919"/>
<path d="M214.867 166.112C214.892 167.318 216.256 167.576 217.146 167.111C217.792 166.783 218.352 166.257 218.976 165.891C219.621 165.596 220.211 165.193 220.718 164.698C220.753 164.661 220.776 164.615 220.784 164.566C220.793 164.516 220.788 164.465 220.769 164.419C220.749 164.373 220.717 164.333 220.676 164.304C220.634 164.276 220.586 164.26 220.535 164.258C218.56 164.136 216.663 166.831 216.003 166.293C215.542 165.918 217.028 162.96 220.255 162.284C220.363 162.248 220.455 162.176 220.515 162.079C220.575 161.982 220.599 161.867 220.583 161.754C220.568 161.641 220.513 161.537 220.428 161.461C220.344 161.384 220.236 161.339 220.122 161.334C219.402 161.371 218.671 161.395 217.953 161.432C217.62 161.495 217.278 161.479 216.953 161.383C216.514 161.139 217.088 160.858 217.355 160.712C217.937 160.432 218.569 160.272 219.214 160.243C219.86 160.214 220.504 160.316 221.109 160.542C221.183 160.561 221.262 160.552 221.33 160.518C221.399 160.483 221.453 160.425 221.482 160.354C221.512 160.283 221.515 160.204 221.491 160.131C221.467 160.059 221.418 159.997 221.353 159.957C220.487 159.481 219.492 159.297 218.514 159.433C217.577 159.5 216.694 159.892 216.016 160.542C215.904 160.686 215.828 160.855 215.796 161.034C215.765 161.214 215.777 161.399 215.834 161.572C215.891 161.746 215.989 161.903 216.121 162.029C216.252 162.155 216.413 162.247 216.589 162.297C217.641 162.663 217.868 161.964 216.686 163.029C215.708 163.786 215.058 164.889 214.867 166.112Z" fill="#191919"/>
<path d="M158.933 89.5848C158.003 90.2572 157.002 90.8254 155.948 91.2794C155.582 91.4611 155.741 92.1334 156.168 92.0833C159.715 91.6978 163.719 87.3327 163.479 82.3343C163.259 77.4238 159.664 73.3417 155.35 71.3677C146.611 67.36 132.284 68.5703 126.958 77.497C126.258 78.7602 125.821 80.1523 125.674 81.5892C125.528 83.0261 125.674 84.4778 126.104 85.8565C126.664 88.0525 127.871 90.5962 130.235 91.2428C130.298 91.2569 130.365 91.2483 130.422 91.2184C130.479 91.1885 130.524 91.1393 130.549 91.0795C130.574 91.0197 130.576 90.953 130.557 90.8914C130.537 90.8297 130.496 90.777 130.441 90.7426C129.595 90.2092 128.862 89.5137 128.284 88.6961C127.707 87.8785 127.297 86.955 127.078 85.9785C126.274 83.619 126.37 81.0458 127.346 78.7524C131.42 70.5113 144.099 68.7752 152.827 71.5983C163.113 74.935 164.776 84.9939 158.933 89.5848Z" fill="#191919"/>
<path d="M157.204 170.023C155.031 162.039 154.52 158.513 155.193 149.003C155.705 141.654 156.667 134.307 156.132 126.935C155.111 112.933 149.544 98.2793 156.241 84.0407C156.4 83.7113 155.936 83.4185 155.741 83.7479C148.597 95.4489 153.357 112.197 154.632 123.632C156.566 140.918 151.397 151.512 155.108 166.854C157.304 175.913 159.561 180.66 158.402 189.204C158.304 189.898 159.291 190.227 159.485 189.496C161.082 183.471 158.814 175.99 157.204 170.023Z" fill="#191919"/>
<path d="M106.06 95.2393C106.727 100.905 106.853 106.622 106.437 112.312C105.976 117.978 104.414 123.51 104.207 129.188C103.757 141.572 108.54 153.293 106.962 163.175C106.155 168.22 103.586 172.935 98.9915 175.434C98.2973 175.812 98.9073 176.788 99.6015 176.469C103.686 174.599 106.337 170.413 107.531 166.221C110.373 156.266 105.658 144.271 105.301 132.016C105.098 124.999 106.508 121.172 107.239 114.748C108.088 108.222 107.916 101.603 106.728 95.1295C106.7 95.054 106.647 94.9905 106.578 94.95C106.509 94.9094 106.427 94.8944 106.348 94.9074C106.269 94.9204 106.197 94.9607 106.144 95.0213C106.092 95.0819 106.062 95.159 106.06 95.2393Z" fill="#191919"/>
<path d="M118.185 145.895C116.965 153.337 113.2 158.534 114.614 168.343C114.874 170.138 115.637 173.955 116.759 175.447C116.81 175.527 116.887 175.586 116.977 175.614C117.067 175.642 117.164 175.638 117.252 175.601C117.339 175.565 117.411 175.499 117.454 175.416C117.498 175.332 117.511 175.236 117.491 175.143C117.214 173.913 116.864 172.7 116.443 171.511C113.23 159.524 118.639 153.745 118.818 145.994C118.828 145.628 118.245 145.53 118.185 145.895Z" fill="#191919"/>
<path d="M113.25 170.312C112.559 174.807 111.943 178.878 108.899 182.595C107.497 184.303 106.76 184.497 106.12 185.484C106.087 185.544 106.072 185.612 106.077 185.68C106.082 185.748 106.107 185.813 106.148 185.867C106.19 185.921 106.246 185.962 106.31 185.985C106.374 186.008 106.444 186.011 106.51 185.995C107.814 185.482 108.926 184.575 109.691 183.4C112.585 179.702 114.059 175.089 113.846 170.398C113.871 170.068 113.306 169.946 113.25 170.312Z" fill="#191919"/>
<path d="M109.91 174.46C108.849 177.316 107.059 179.845 104.719 181.796C103.903 182.467 102.863 182.963 102.098 183.697C102.054 183.743 102.025 183.802 102.013 183.865C102.002 183.928 102.009 183.993 102.033 184.052C102.058 184.111 102.099 184.162 102.151 184.199C102.204 184.235 102.266 184.256 102.33 184.258C103.415 184.042 104.409 183.502 105.181 182.71C107.759 180.642 109.611 177.809 110.47 174.618C110.592 174.227 110.043 174.106 109.91 174.46Z" fill="#191919"/>
<path d="M106.401 173.472C103.008 179.501 100.329 179.419 99.8566 180.783C99.8416 180.845 99.851 180.909 99.8828 180.964C99.9147 181.019 99.9665 181.059 100.027 181.076C100.831 181.236 101.602 180.544 102.197 180.089C104.368 178.465 106.03 176.253 106.986 173.716C107.001 173.642 106.99 173.566 106.955 173.5C106.92 173.434 106.863 173.382 106.794 173.353C106.725 173.324 106.648 173.32 106.576 173.342C106.504 173.364 106.442 173.409 106.401 173.472Z" fill="#191919"/>
<path d="M120.074 68.0163C119.677 64.8187 115.37 64.5161 112.203 64.0562C108.556 63.4447 104.871 63.0904 101.174 62.996C101.134 62.9941 101.095 63.0019 101.058 63.0189C101.022 63.036 100.991 63.0616 100.967 63.0936C98.534 62.5704 95.9976 62.8393 93.7286 63.861C92.0474 64.6467 92.0914 66.0045 92.9124 66.6023C95.4617 65.8979 98.1065 65.6018 100.748 65.7252C101.732 65.6286 102.722 65.8188 103.6 66.2729C103.746 66.3949 103.648 66.6158 103.49 66.6755C102.514 67.0415 101.66 66.1875 97.0555 66.6511C95.6438 66.8116 94.2464 67.0804 92.8758 67.4551C92.8044 67.8126 92.8203 68.1821 92.9222 68.5322C93.0242 68.8822 93.2092 69.2024 93.4614 69.4657C95.9441 72.0801 100.106 68.5055 114.969 70.8431C115.827 71.0177 116.709 71.0465 117.577 70.9285C118.29 70.8614 118.948 70.5203 119.414 69.977C119.88 69.4337 120.117 68.7307 120.074 68.0163Z" fill="white"/>
<path d="M77.2046 130.493C75.1526 121.626 75.2209 117.608 75.876 107.998C76.4787 99.1691 76.8935 93.8389 74.7548 85.161C72.7016 76.826 69.7016 68.9009 71.9647 60.151C71.9895 60.049 71.9737 59.9414 71.9206 59.8508C71.8676 59.7602 71.7814 59.6937 71.6804 59.6654C71.5793 59.6371 71.4711 59.6491 71.3787 59.699C71.2864 59.7488 71.2169 59.8326 71.1851 59.9327C68.5231 66.9074 70.6373 74.68 72.4771 81.5864C74.7451 90.1008 75.4563 93.6705 74.8158 104.178C74.3181 112.352 73.5202 118.598 75.0598 126.748C76.963 136.824 83.6791 152.933 70.5458 165.023C69.9358 165.585 70.835 166.47 71.4486 165.925C75.8612 161.939 78.7148 156.515 79.5006 150.62C80.484 143.774 78.7442 137.148 77.2046 130.493Z" fill="#191919"/>
<path d="M91.901 73.4438C87.7469 81.8203 90.0478 91.9951 90.8408 100.521C92.4036 117.328 86.0255 131.516 88.635 147.143C89.4561 152.058 91.0348 157.416 90.11 162.595C89.774 164.163 89.2836 165.693 88.646 167.164C88.4167 167.75 89.267 167.98 89.5842 167.555C91.2361 165.344 91.6338 162.187 91.668 159.503C91.7802 150.731 88.0836 147.394 89.6452 131.633C90.5602 122.4 92.7696 113.272 92.3512 103.752C91.9278 94.146 88.7827 83.826 92.4854 73.6768C92.6061 73.3401 92.0632 73.1108 91.901 73.4438Z" fill="#191919"/>
<path d="M70.759 158.313C71.4044 158.511 72.0425 157.94 72.539 157.581C74.3845 156.285 75.9049 154.579 76.981 152.597C77.1384 152.305 76.737 151.937 76.493 152.219C71.9217 157.56 70.8091 156.644 70.5089 157.874C70.4861 157.965 70.4994 158.062 70.546 158.144C70.5926 158.225 70.6689 158.286 70.759 158.313Z" fill="#191919"/>
<path d="M80.8476 156.594C79.5202 159.929 78.6138 163.727 75.9481 166.807C74.7281 168.216 74.0766 168.408 73.6813 169.17C73.5495 169.428 73.7057 169.839 74.0473 169.805C75.1778 169.496 76.1595 168.791 76.813 167.818C79.4604 164.814 80.7951 160.697 81.571 156.79C81.5839 156.742 81.5872 156.693 81.5809 156.644C81.5745 156.595 81.5586 156.548 81.5341 156.505C81.5096 156.463 81.4769 156.425 81.4379 156.395C81.3989 156.365 81.3544 156.343 81.3069 156.33C81.2594 156.317 81.2098 156.314 81.1611 156.321C81.1123 156.327 81.0652 156.343 81.0225 156.367C80.9799 156.392 80.9425 156.424 80.9125 156.463C80.8824 156.502 80.8604 156.547 80.8476 156.594Z" fill="#191919"/>
<path d="M84.9542 159.836C84.3391 162.554 83.0905 165.088 81.31 167.233C80.1462 168.562 79.7618 168.765 79.6899 169.243C79.6772 169.296 79.6763 169.35 79.6873 169.403C79.6983 169.456 79.7209 169.506 79.7535 169.549C79.786 169.592 79.8277 169.628 79.8756 169.653C79.9234 169.678 79.9762 169.692 80.0302 169.695C80.8598 169.732 81.7504 168.597 82.236 168.024C84.2363 165.778 85.4212 162.924 85.5996 159.921C85.5978 159.843 85.568 159.767 85.5155 159.709C85.463 159.65 85.3914 159.612 85.3134 159.602C85.2355 159.592 85.1565 159.61 85.0906 159.652C85.0247 159.695 84.9763 159.76 84.9542 159.836Z" fill="#191919"/>
<path d="M67.2611 136.5C69.3683 139.096 71.6135 141.578 73.9869 143.933C74.3151 144.215 74.9092 143.851 74.6213 143.445C71.88 139.6 62.0553 129.829 54.9159 115.929C49.6992 105.762 44.6679 91.7855 52.5405 83.5151C55.887 80.0003 60.7048 78.4863 65.5177 78.1166C67.2611 77.9836 69.0044 78.041 70.7454 77.9092C71.1968 77.875 71.3664 77.1565 70.8552 77.0686C65.5909 76.1719 58.388 77.2943 53.6739 80.8104C48.9598 84.3264 46.9737 90.047 47.2079 95.7859C47.4519 101.94 49.7699 107.986 52.3319 113.516C56.3007 121.787 61.3184 129.511 67.2611 136.5Z" fill="#191919"/>
<path d="M65.1781 94.8732C64.9219 94.6292 64.4461 94.9464 64.6657 95.2636C66.4277 97.6908 68.0083 100.245 69.3944 102.904C71.7466 107.684 71.5428 109.324 72.6713 111.239C72.7038 111.293 72.753 111.335 72.8115 111.359C72.8699 111.382 72.9344 111.386 72.9951 111.369C73.0558 111.353 73.1095 111.317 73.1479 111.267C73.1864 111.217 73.2075 111.156 73.2081 111.093C73.2076 109.546 72.8748 108.016 72.2321 106.608C70.7643 102.229 68.3567 98.2239 65.1781 94.8732Z" fill="#191919"/>
<path d="M77.7767 143.337C77.7603 143.283 77.7305 143.235 77.6901 143.197C77.6497 143.159 77.6002 143.132 77.5462 143.118C77.4922 143.105 77.4356 143.105 77.382 143.12C77.3283 143.135 77.2794 143.163 77.2399 143.202C76.8605 143.524 76.8129 144.048 75.8381 144.262C74.5352 144.55 73.1419 143.363 72.9626 144.079C71.8219 144.013 70.6792 144.17 69.5991 144.543C63.4485 146.202 58.0964 150.011 54.5138 155.279C53.9172 156.168 53.3182 157.436 54.0014 158.451C54.6846 159.466 56.4267 159.366 57.4991 159.462C60.055 159.689 65.8964 159.816 68.3937 159.17C68.5121 159.133 68.6138 159.057 68.6808 158.952C68.7479 158.848 68.7758 158.724 68.7597 158.601C68.7436 158.478 68.6845 158.365 68.5929 158.282C68.5014 158.199 68.3832 158.151 68.2595 158.146C65.8329 158.111 65.007 158.68 59.7195 158.451C58.3144 158.446 56.9123 158.324 55.5276 158.085C54.077 157.768 55.3812 156.026 55.8558 155.355C59.2486 150.655 64.1319 147.241 69.7113 145.668C70.3603 145.485 73.1273 144.984 73.392 144.583C76.0272 146.008 78.1061 144.483 77.7767 143.337Z" fill="#191919"/>
<path d="M68.15 143.642C67.6758 141.841 66.6383 140.24 65.1891 139.072C64.7904 138.67 64.3014 138.369 63.7629 138.194C62.5197 137.95 62.3977 139.802 62.5807 140.606C62.5966 140.683 62.6259 140.672 62.4587 140.618C62.2787 140.543 62.0848 140.505 61.8894 140.508C61.6941 140.511 61.5015 140.555 61.3239 140.636C61.1463 140.718 60.9876 140.835 60.8578 140.981C60.728 141.127 60.6301 141.299 60.5702 141.485C60.3872 142.325 61.2399 143.141 61.8255 143.617C62.548 144.246 63.4444 144.641 64.3961 144.749C64.9207 144.787 64.9695 144.031 64.5181 143.884C63.9487 143.729 63.4005 143.504 62.8857 143.215C61.157 142.111 61.2839 141.249 62.2025 141.546C62.5001 141.677 62.7824 141.841 63.0443 142.034C63.6377 142.491 64.265 142.902 64.9207 143.265C65.0311 143.316 65.1567 143.324 65.2728 143.288C65.389 143.251 65.4873 143.172 65.5484 143.067C65.6095 142.962 65.6291 142.837 65.6032 142.719C65.5774 142.6 65.508 142.495 65.4087 142.424C64.612 141.898 63.9752 141.62 63.6299 140.693C63.5445 140.462 63.3005 139.5 63.5811 139.292C63.8617 139.085 64.4583 139.658 64.6901 139.852C65.9622 140.898 66.9311 142.266 67.4961 143.812C67.5266 143.89 67.5844 143.953 67.6586 143.991C67.7328 144.029 67.8183 144.038 67.8988 144.017C67.9793 143.996 68.0493 143.946 68.0956 143.877C68.1419 143.808 68.1612 143.724 68.15 143.642Z" fill="#191919"/>
<path d="M38.7821 145.432C42.5739 143.561 45.275 139.583 46.8341 135.769C51.9484 123.278 45.6019 109.345 44.9334 96.6642C44.4307 87.1384 48.0712 78.2324 46.6511 70.6599C46.5767 70.2585 45.9191 70.3549 45.9447 70.7575C46.6292 83.0051 42.3945 87.5093 44.421 101.928C46.007 113.243 51.2896 128.213 43.373 139.547C41.9522 141.479 40.1984 143.142 38.1941 144.458C38.0717 144.539 37.9855 144.664 37.9533 144.807C37.9211 144.951 37.9455 145.101 38.0213 145.227C38.0972 145.352 38.2187 145.444 38.3604 145.482C38.5022 145.521 38.6532 145.503 38.7821 145.432Z" fill="#191919"/>
<path d="M56.1102 125.85C52.6014 130.89 56.453 140.002 52.9906 146.151C52.2964 147.386 51.6779 147.699 51.723 148.32C51.7255 148.41 51.7623 148.496 51.8258 148.559C51.8893 148.623 51.9748 148.66 52.0646 148.662C52.8698 148.717 53.5128 147.588 53.8678 147.004C55.2081 144.506 55.8603 141.697 55.7576 138.864C55.8149 134.228 55.05 131.126 56.6348 126.069C56.7385 125.738 56.2907 125.592 56.1102 125.85Z" fill="#191919"/>
<path d="M52.0412 142.057C52.021 141.993 51.9788 141.937 51.922 141.901C51.8651 141.865 51.7973 141.85 51.7305 141.858C51.6636 141.867 51.602 141.899 51.5564 141.949C51.5108 141.999 51.4842 142.063 51.4812 142.13C51.4422 143.484 48.6838 148.799 44.182 151.158C43.6639 151.342 43.1718 151.592 42.718 151.902C42.669 151.952 42.6339 152.015 42.6164 152.083C42.5988 152.15 42.5993 152.222 42.6177 152.29C42.6362 152.357 42.6721 152.419 42.7218 152.468C42.7715 152.518 42.8332 152.554 42.901 152.572C44.0246 152.766 45.3885 151.672 46.2401 151.049C48.2525 149.596 49.9035 147.699 51.0652 145.505C51.7686 144.498 52.1124 143.283 52.0412 142.057Z" fill="#191919"/>
<path d="M48.1282 143.019C48.1623 142.95 48.1688 142.871 48.1465 142.797C48.1242 142.723 48.0746 142.661 48.0079 142.622C47.9413 142.583 47.8624 142.572 47.7873 142.589C47.7122 142.606 47.6466 142.651 47.6036 142.715C46.3895 144.457 45.0539 146.11 43.6069 147.663C41.1327 150.094 39.6589 149.954 39.1465 150.684C39.1244 150.723 39.1113 150.766 39.1082 150.81C39.105 150.854 39.1119 150.898 39.1284 150.939C39.1448 150.98 39.1704 151.017 39.2031 151.046C39.2359 151.076 39.2749 151.098 39.3173 151.11C40.5373 151.598 43.2945 149.381 44.2413 148.454C45.7965 146.843 47.1062 145.012 48.1282 143.019Z" fill="#191919"/>
<path d="M42.62 145.555C43.718 144.751 45.1075 143.753 45.304 142.313C45.3143 142.27 45.3103 142.225 45.2927 142.184C45.2751 142.143 45.2448 142.11 45.2063 142.088C45.1678 142.066 45.1232 142.057 45.0793 142.062C45.0353 142.068 44.9943 142.087 44.9624 142.118C44.0261 143.214 42.9717 144.202 41.8184 145.067C39.4858 146.794 38.6769 146.927 37.9803 147.663C37.9398 147.705 37.9139 147.759 37.9065 147.816C37.8991 147.874 37.9106 147.933 37.9393 147.983C37.968 148.034 38.0124 148.074 38.0657 148.097C38.1191 148.121 38.1786 148.126 38.2353 148.113C39.8136 147.478 41.2907 146.616 42.62 145.555Z" fill="#191919"/>
<path d="M104.622 96.5192C104.496 95.4818 103.966 94.536 103.147 93.8864C99.33 91.1012 97.877 86.4761 96.8839 82.0414C96.2181 79.0673 95.8466 76.0348 95.7749 72.9878C95.7722 72.8714 95.7318 72.759 95.6598 72.6675C95.5879 72.5759 95.4882 72.5101 95.3757 72.4799C95.2633 72.4497 95.1441 72.4567 95.0359 72.4999C94.9278 72.543 94.8365 72.6201 94.7757 72.7194C89.3992 82.3574 93.3606 87.3814 93.546 97.128C93.6143 100.764 92.9177 101.807 93.0336 102.964C93.0604 103.233 93.252 103.534 93.5692 103.501C94.0938 103.446 94.6049 103.391 95.1295 103.343C95.7054 99.7973 96.2373 97.5354 96.5557 96.1166C96.6577 95.1246 96.9253 94.1567 97.3475 93.2532C97.3884 93.1884 97.4491 93.1384 97.5206 93.1108C97.5921 93.0832 97.6706 93.0794 97.7444 93.0999C97.8183 93.1205 97.8835 93.1643 97.9305 93.2249C97.9774 93.2855 98.0036 93.3596 98.0051 93.4362C98.1856 94.7685 97.1633 96.3984 96.1409 103.257C95.8896 104.943 95.5651 106.631 95.3003 108.314C95.2791 108.394 95.2766 108.479 95.2929 108.56C95.3092 108.642 95.3439 108.718 95.3944 108.784C95.445 108.85 95.5099 108.904 95.5843 108.941C95.6588 108.978 95.7406 108.997 95.8237 108.997C96.4093 108.967 96.9937 108.949 97.5671 108.936C95.5297 117.946 93.5655 128.34 98.0551 135.696C98.6463 136.724 99.4135 137.64 100.322 138.402C100.711 138.78 101.18 139.066 101.695 139.237C102.21 139.407 102.757 139.459 103.295 139.389C103.407 139.355 103.506 139.285 103.576 139.191C103.645 139.096 103.683 138.982 103.683 138.865C103.683 138.747 103.645 138.633 103.576 138.539C103.506 138.444 103.407 138.375 103.295 138.341C102.441 138.066 101.039 138.219 98.9933 134.77C94.5171 127.229 97.3695 118.017 98.4333 108.924C100.615 108.912 102.796 109.005 104.977 109.204C105.119 109.203 105.255 109.146 105.355 109.046C105.455 108.945 105.512 108.81 105.513 108.668C105.487 108.096 105.464 107.522 105.428 106.938C105.729 103.444 105.457 99.925 104.622 96.5192Z" fill="#191919"/>
<path d="M109.63 51.5415C106.281 50.0285 102.709 49.0693 99.0523 48.7014C95.2386 48.1194 91.3883 47.74 87.5489 47.4338C80.0667 46.8384 72.3306 46.0735 64.9448 47.8486C63.1669 48.3007 61.4271 48.8913 59.7415 49.6152C58.8387 49.9812 57.2331 50.4326 57.0233 51.3951C56.722 52.7847 55.3043 53.2129 55.5129 53.3203C56.7244 53.9437 56.8549 55.5163 56.5975 56.7936C56.4406 57.6326 56.0855 58.4219 55.5617 59.0958C55.3373 59.3776 55.0883 59.6389 54.8175 59.8766C54.6955 59.962 54.343 60.2865 54.1844 60.2902C54.1277 60.2862 54.0715 60.3022 54.0253 60.3353C53.9792 60.3684 53.946 60.4166 53.9315 60.4715C53.9171 60.5264 53.9222 60.5846 53.9461 60.6362C53.97 60.6877 54.0111 60.7293 54.0624 60.7538C59.9745 63.9465 57.0331 70.066 54.038 70.2954C53.1847 70.2474 52.3521 70.0143 51.598 69.6122C49.2263 68.6825 49.2897 68.6752 49.1482 68.7106C49.0277 68.6228 48.887 68.5669 48.7391 68.5481C48.5913 68.5293 48.4411 68.5481 48.3024 68.6029C48.1638 68.6577 48.0412 68.7466 47.9462 68.8614C47.8511 68.9762 47.7866 69.1132 47.7586 69.2596C47.5049 70.393 48.8176 71.125 49.574 71.6715C52.1787 73.554 54.9481 75.1815 57.4588 77.1798C57.4909 77.2028 57.5292 77.2155 57.5686 77.2164C57.5579 77.2597 57.5587 77.3051 57.571 77.348C57.5834 77.3909 57.6068 77.4298 57.639 77.4607C57.6712 77.4917 57.7109 77.5136 57.7543 77.5242C57.7976 77.5349 57.843 77.5339 57.8858 77.5214C59.8314 76.941 61.8139 76.4927 63.8199 76.1794C65.7609 75.8649 67.7277 75.7382 69.693 75.8012C69.876 75.8744 70.0675 75.6573 70.0102 75.4853C69.5223 73.8999 69.3081 72.243 69.377 70.5857C69.3745 70.5284 69.3544 70.4732 69.3195 70.4276C69.2846 70.382 69.2365 70.3482 69.1818 70.3308C60.4942 67.6834 63.1331 53.4496 82.6836 53.9828C84.7901 53.9698 86.8733 54.4235 88.7836 55.3113C89.0508 55.448 90.3513 56.0909 90.3317 56.3593C90.3321 56.4049 90.3441 56.4496 90.3668 56.4891C90.3894 56.5286 90.4219 56.5616 90.461 56.5849C90.5001 56.6082 90.5446 56.621 90.5902 56.6221C90.6357 56.6232 90.6807 56.6125 90.7209 56.5911C91.3951 56.1516 92.1721 55.8951 92.9755 55.8469C93.0321 55.8452 93.0867 55.8254 93.1312 55.7904C93.1757 55.7554 93.2078 55.7071 93.2229 55.6525C93.2379 55.5979 93.235 55.5399 93.2146 55.4871C93.1942 55.4342 93.1575 55.3893 93.1097 55.3589C92.9767 55.2845 92.8413 55.2003 92.7071 55.1271C93.3517 54.3832 94.1682 53.8079 95.0856 53.4512C96.003 53.0944 96.9936 52.967 97.9714 53.08C98.0221 53.0795 98.0715 53.0642 98.1136 53.0359C98.1556 53.0076 98.1885 52.9676 98.208 52.9208C98.2275 52.874 98.2328 52.8225 98.2233 52.7727C98.2137 52.7229 98.1898 52.6771 98.1544 52.6408C97.6935 52.2647 97.2874 51.8262 96.9478 51.3378C100.957 49.5578 105.417 50.7888 109.402 52.0198C109.703 52.1015 109.887 51.6733 109.63 51.5415Z" fill="white"/>
<path d="M128.322 61.6551C121.946 56.1651 118.075 55.8808 117.637 55.4038C117.429 55.1842 117.088 55.5136 117.295 55.7454C119.247 57.8402 119.72 60.8267 119.72 63.5925C119.721 63.6292 119.73 63.6653 119.747 63.698C119.763 63.7308 119.787 63.7594 119.816 63.7817C119.845 63.804 119.879 63.8194 119.915 63.8267C119.951 63.8341 119.988 63.8333 120.024 63.8243C122.721 63.0933 125.455 62.5033 128.214 62.0565C128.254 62.0447 128.29 62.0228 128.319 61.993C128.349 61.9632 128.37 61.9264 128.38 61.8861C128.391 61.8459 128.392 61.8035 128.382 61.7631C128.371 61.7226 128.351 61.6854 128.322 61.6551Z" fill="white"/>
<path d="M51.8084 66.9318C50.6948 66.3639 49.4834 66.0124 48.2387 65.8961C47.9459 65.8582 47.7263 66.1889 48.0191 66.334C49.6783 67.1588 50.6385 66.9697 52.333 68.5154C52.6378 68.8906 53.0505 69.1632 53.5152 69.2962C53.697 69.323 53.8678 69.2352 53.8678 69.0644C53.8678 68.2116 52.5636 67.3601 51.8084 66.9318Z" fill="#191919"/>
<path d="M37.8802 51.8693C37.546 52.6889 37.3482 53.5576 37.2946 54.4411C37.0385 56.1799 36.9161 57.9357 36.9286 59.6932C36.9384 60.3386 36.8957 61.1853 37.4886 61.594C37.537 61.6219 37.5911 61.6383 37.6469 61.6421C37.7027 61.6458 37.7585 61.6367 37.8102 61.6155C37.8619 61.5943 37.9081 61.5616 37.9452 61.5198C37.9823 61.478 38.0093 61.4282 38.0242 61.3744C38.1027 61.0546 38.111 60.7216 38.0486 60.3984C38.0436 58.4575 38.1372 56.5176 38.3292 54.5863C38.4844 53.7502 38.562 52.9015 38.561 52.0511C38.5305 51.7278 38.073 51.5033 37.8802 51.8693Z" fill="#191919"/>
<path d="M42.9985 49.6029C43.0485 49.6027 43.0974 49.5891 43.1403 49.5636C43.1833 49.5381 43.2185 49.5015 43.2425 49.4577C43.5878 48.5964 42.1945 48.1791 41.5723 48.2511C41.1528 48.294 40.7632 48.4884 40.4767 48.7979C40.1901 49.1073 40.0262 49.5107 40.0156 49.9323C40.0164 49.9978 40.0407 50.0608 40.0841 50.1098C40.1275 50.1589 40.187 50.1908 40.2519 50.1996C40.3168 50.2085 40.3827 50.1938 40.4376 50.1581C40.4925 50.1225 40.5328 50.0683 40.5512 50.0055C40.6259 49.7282 40.7913 49.4839 41.0211 49.3116C41.2508 49.1394 41.5317 49.049 41.8188 49.0551C42.2799 49.1088 42.5593 49.6541 42.9985 49.6029Z" fill="#191919"/>
<path d="M34.6884 47.9218C34.4566 48.0804 34.5896 48.4805 34.8824 48.3976C35.0258 48.3628 35.1747 48.3571 35.3203 48.3807C35.466 48.4043 35.6054 48.4569 35.7305 48.5352C35.8555 48.6135 35.9636 48.716 36.0485 48.8368C36.1333 48.9575 36.1931 49.094 36.2244 49.2381C36.255 49.3344 36.3185 49.4168 36.4037 49.471C36.4889 49.5252 36.5905 49.5478 36.6906 49.5347C36.7908 49.5216 36.8831 49.4737 36.9516 49.3995C37.02 49.3252 37.0601 49.2292 37.065 49.1283C37.0668 48.8516 36.9915 48.5798 36.8475 48.3435C36.7035 48.1071 36.4965 47.9156 36.2498 47.7903C36.003 47.665 35.7262 47.6109 35.4504 47.6342C35.1746 47.6574 34.9108 47.757 34.6884 47.9218Z" fill="#191919"/>
<path d="M38.832 64.0074C40.7395 63.0627 42.4064 61.6953 43.7059 60.0095C43.9084 61.2668 43.8628 62.5516 43.5717 63.7915C43.4216 64.4356 43.2313 65.3872 42.5725 65.7166C41.7441 66.1314 41.2049 65.0359 40.9036 64.449C40.5839 63.8293 39.6592 64.3771 39.9654 64.998C40.3899 65.863 41.0134 66.839 42.0857 66.9232C42.5339 66.9251 42.9722 66.7916 43.3431 66.5402C43.7141 66.2887 44.0004 65.9311 44.1646 65.5141C45.0861 63.314 45.1467 60.8479 44.3342 58.6052C44.2268 58.2758 43.6632 58.105 43.4936 58.4954C42.5347 60.7097 40.3741 62.081 38.5465 63.5279C38.333 63.7036 38.5648 64.1074 38.832 64.0074Z" fill="#191919"/>
<path d="M40.9635 55.1355C41.0702 55.2464 41.2052 55.3261 41.3538 55.366C41.5025 55.4058 41.6593 55.4043 41.8072 55.3616C41.9551 55.319 42.0885 55.2367 42.1931 55.1238C42.2977 55.0108 42.3694 54.8715 42.4006 54.7207C42.6056 53.8667 41.6686 53.2665 41.1806 53.5764C41.0541 53.6566 40.9466 53.7634 40.8655 53.8893C40.7844 54.0152 40.7317 54.1573 40.711 54.3057C40.6904 54.454 40.7023 54.6051 40.7458 54.7484C40.7894 54.8917 40.8637 55.0238 40.9635 55.1355Z" fill="#191919"/>
<path d="M35.2979 55.0013C35.4601 55.0043 35.6187 54.9533 35.7488 54.8563C35.8788 54.7594 35.973 54.622 36.0165 54.4657C36.0531 54.2886 36.0419 54.1049 35.9843 53.9334C35.9266 53.7619 35.8245 53.6088 35.6883 53.4897C35.5831 53.3847 35.4405 53.3257 35.2918 53.3257C35.1432 53.3257 35.0006 53.3847 34.8953 53.4897C34.1951 54.3547 34.6977 55.1684 35.2979 55.0013Z" fill="#191919"/>
<path d="M58.4374 43.4127C57.9592 42.2122 56.0292 42.8844 55.1837 44.0715C54.9763 44.363 54.9153 44.729 54.7335 45.0218C54.7591 45.3878 54.5334 45.0975 53.5025 45.2292C53.3016 45.2497 53.102 45.2819 52.9047 45.3256C53.23 44.8861 53.3977 44.3497 53.3805 43.8031C53.9433 43.8605 54.5118 43.7967 55.0478 43.6159C55.5838 43.4352 56.0749 43.1416 56.4879 42.7551C56.7138 42.544 56.8731 42.2715 56.9462 41.9711C57.0193 41.6707 57.003 41.3555 56.8993 41.0642C56.7956 40.7729 56.609 40.5183 56.3625 40.3317C56.116 40.1451 55.8204 40.0346 55.5119 40.0137C55.481 39.7448 55.3721 39.4908 55.1987 39.2829C55.0253 39.075 54.7949 38.9224 54.5359 38.8438C54.1512 38.4259 53.6502 38.1328 53.0975 38.002C52.9033 37.783 52.6589 37.6143 52.3852 37.5104C52.1115 37.4065 51.8168 37.3705 51.5261 37.4054C51.2333 37.431 51.2077 37.4554 50.9649 37.2956C50.6219 36.941 50.2083 36.6623 49.7508 36.4775C49.2933 36.2928 48.8021 36.2062 48.309 36.2232C48.4627 35.0447 46.54 34.6543 45.4444 35.5046C44.8153 34.9709 44.0338 34.6494 43.2112 34.5859C42.3886 34.5223 41.567 34.72 40.8633 35.1508C40.0179 35.6949 40.2241 36.0158 39.0834 36.0048C38.2932 36.0043 37.5268 36.2752 36.9125 36.7723C36.2982 37.2693 35.8733 37.9623 35.7088 38.7352C35.2023 38.7344 34.7052 38.8719 34.2711 39.1329C33.837 39.3938 33.4823 39.7683 33.2453 40.2159C33.0083 40.6635 32.898 41.1674 32.9262 41.6731C32.9544 42.1788 33.1201 42.6672 33.4055 43.0857C33.4593 43.1746 33.5411 43.2431 33.638 43.2804C33.735 43.3177 33.8416 43.3218 33.9411 43.2919C34.3209 43.4358 34.7281 43.4931 35.133 43.4595C35.5378 43.426 35.93 43.3024 36.281 43.0979C37.9183 42.3659 37.8756 41.8633 38.0964 41.4521C38.564 41.5278 39.0367 41.5686 39.5104 41.5741C40.2119 41.4964 40.8742 41.2111 41.4126 40.7546C41.951 40.2982 42.3408 39.6915 42.5323 39.0121C42.8833 39.1451 43.2466 39.2432 43.6169 39.3049C43.1623 39.8025 42.8398 40.4061 42.6787 41.0605C41.0707 41.0605 39.2627 42.4977 39.5226 44.1922C39.4966 44.5602 39.5768 44.9278 39.7536 45.2515C39.9305 45.5752 40.1965 45.8413 40.5202 46.0182C40.8438 46.1951 41.2114 46.2754 41.5794 46.2495C41.9473 46.2237 42.3001 46.0927 42.5957 45.8722C43.3163 45.3932 43.8601 44.6912 44.1439 43.8738C44.6546 44.075 45.2192 44.0927 45.7415 43.9238C46.2637 43.7549 46.7111 43.41 47.0073 42.9478C47.4074 42.2732 47.4953 42.7038 48.7982 42.7038C48.1778 42.9977 47.6508 43.4575 47.2757 44.0324C46.5978 43.9421 45.9102 44.1012 45.3408 44.48C44.7715 44.8589 44.3591 45.4316 44.1805 46.0918C43.5705 47.9328 46.2838 49.4309 48.1894 46.6762C48.4334 46.3236 48.531 46.0393 48.9934 46.1882C49.6413 46.4183 50.3341 46.4931 51.0162 46.4065C50.702 46.7609 50.4848 47.1904 50.3854 47.6534C49.0325 47.4826 47.394 47.5582 46.9365 49.104C46.9203 49.1558 46.9198 49.2112 46.935 49.2632C46.9502 49.3153 46.9804 49.3618 47.0219 49.3968C47.0097 49.4578 46.9963 49.5053 46.9853 49.5663C46.9227 49.9691 47.0063 50.381 47.2208 50.7276C47.4354 51.0742 47.7668 51.3326 48.1553 51.4561C49.9987 52.0808 50.982 50.4325 51.4822 48.921C51.9976 49.2861 52.6059 49.4976 53.2366 49.531C53.0371 49.7295 52.8795 49.9659 52.773 50.2264C52.4802 50.5976 52.3334 51.0631 52.3604 51.5351C52.3873 52.0071 52.5862 52.4529 52.9194 52.7884C52.6409 52.808 52.3754 52.9135 52.1593 53.0902C51.9432 53.2669 51.7873 53.5063 51.7128 53.7753C51.6396 54.0315 52.0068 54.2768 52.1886 54.0559C53.2768 52.7383 55.1007 54.8026 54.2236 57.0779C53.7197 58.3857 52.2813 59.3544 51.0796 58.7359C50.6624 58.5211 50.5294 58.1259 50.1902 57.8465C50.1267 57.7885 50.0479 57.75 49.9631 57.7353C49.8784 57.7206 49.7912 57.7304 49.7119 57.7636C49.6325 57.7968 49.5643 57.852 49.5153 57.9227C49.4662 57.9933 49.4384 58.0765 49.4351 58.1625C49.296 59.5533 51.3602 60.1852 52.4082 59.9925C53.1174 59.8287 53.767 59.4707 54.2842 58.9585C54.8014 58.4463 55.1656 57.8001 55.3362 57.0925C55.5739 56.3986 55.5939 55.6487 55.3935 54.9431C55.1931 54.2375 54.7819 53.61 54.215 53.1446C54.7879 52.9355 55.2801 52.5508 55.6215 52.0453C55.9628 51.5399 56.1358 50.9396 56.1158 50.3301C56.4137 50.258 56.6942 50.1271 56.9409 49.945C57.1875 49.763 57.3953 49.5335 57.552 49.2701C57.7088 49.0067 57.8113 48.7146 57.8535 48.4109C57.8958 48.1073 57.877 47.7983 57.7982 47.5021C58.1085 47.2677 58.3295 46.9343 58.4247 46.5572C58.5199 46.1801 58.4835 45.7817 58.3215 45.4281C58.5932 44.7902 58.6342 44.0775 58.4374 43.4127ZM51.6982 42.5111C51.1973 42.3441 50.667 42.2838 50.1414 42.3342C50.657 42.0316 51.0658 41.5763 51.3114 41.0312C51.6351 41.1027 51.9713 41.0933 52.2905 41.0039C52.6097 40.9146 52.9019 40.748 53.1414 40.5188C53.2542 40.6804 53.3946 40.8208 53.5562 40.9336C53.5684 40.9458 53.5806 40.9458 53.5928 40.958C53.1781 41.052 52.7909 41.2412 52.4621 41.5108C52.1332 41.7804 51.8717 42.1229 51.6982 42.5111Z" fill="#191919"/>
<path d="M48.1403 63.0079C47.2777 64.6806 46.5628 67.4756 44.1436 68.9664C43.1331 69.5143 41.9767 69.7326 40.8361 69.5906C39.6954 69.4486 38.6278 68.9535 37.7825 68.1747C33.4893 64.6305 32.8952 55.0291 33.4076 49.3964C33.6748 46.4562 33.9529 45.6437 33.9187 44.6189C33.9177 44.5519 33.8927 44.4876 33.8482 44.4375C33.8037 44.3875 33.7428 44.3551 33.6764 44.3462C33.61 44.3373 33.5427 44.3526 33.4866 44.3892C33.4306 44.4258 33.3895 44.4814 33.371 44.5457C32.9194 46.0403 32.6415 47.582 32.5426 49.1402C31.8106 55.0889 32.5584 65.3918 37.3311 69.0884C41.4876 72.3068 46.7873 70.7293 48.9077 63.3361C49.0431 62.8847 48.3599 62.5858 48.1403 63.0079Z" fill="#191919"/>
<path d="M170.329 208.592C169.892 208.378 169.444 208.187 168.987 208.019C168.974 207.992 168.955 207.968 168.932 207.949C168.909 207.93 168.882 207.916 168.853 207.909C128.435 196.542 82.1191 179.164 43.0462 161.116C42.9242 161.06 18.2265 149.634 18.0167 149.588C17.2053 149.509 16.388 149.509 15.5767 149.588C6.04113 149.551 6.09603 149.2 6.09603 149.71C6.09378 149.748 6.10306 149.786 6.12265 149.818C6.14224 149.851 6.17124 149.877 6.20583 149.893C14.2237 153.658 21.9341 158.002 29.9556 161.761C68.2001 179.685 107.095 195.511 150.437 207.945C156.344 209.64 155.29 209.479 158.139 209.359C160.868 209.245 168.925 208.97 170.226 208.896C170.39 208.887 170.475 208.665 170.329 208.592Z" fill="white"/>
</svg>
